USFL
nRows=227
nColumns=2
inDegrees=yes
endheader
time	tib_ant_r	
2.22883	 78.127125	
2.2621	 78.126308	
2.29536	 78.121211	
2.32863	 78.118435	
2.3619	 78.102159	
2.39516	 78.107469	
2.42843	 78.099872	
2.46169	 78.087945	
2.49496	 78.077996	
2.52823	 78.101012	
2.56149	 78.104417	
2.59476	 78.092624	
2.62802	 78.104307	
2.66129	 78.102831	
2.69456	 78.093459	
2.72782	 78.085387	
2.76109	 78.080449	
2.79435	 78.085475	
2.82762	 78.050215	
2.86089	 78.061771	
2.89415	 78.075728	
2.92742	 78.104802	
2.96069	 78.066677	
2.99395	 78.061950	
3.02722	 78.043672	
3.06048	 78.064416	
3.09375	 78.099454	
3.12702	 78.095199	
3.16028	 78.067732	
3.19355	 78.072154	
3.22681	 78.070835	
3.26008	 78.024064	
3.29335	 77.992452	
3.32661	 77.992019	
3.35988	 77.983377	
3.39315	 77.992740	
3.42641	 77.989383	
3.45968	 78.004755	
3.49294	 78.017153	
3.52621	 78.012093	
3.55948	 78.005289	
3.59274	 77.993285	
3.62601	 77.965691	
3.65927	 77.990550	
3.69254	 78.008065	
3.72581	 77.997494	
3.75907	 78.011492	
3.79234	 78.028525	
3.8256	 78.019607	
3.85887	 77.941221	
3.89214	 77.948134	
3.9254	 78.045699	
3.95867	 78.059624	
3.99194	 78.027373	
4.0252	 78.086220	
4.05847	 78.004483	
4.09173	 78.011998	
4.125	 78.032549	
4.15827	 78.024996	
4.19153	 78.171983	
4.2248	 77.259038	
4.25806	 77.720889	
4.29133	 78.206936	
4.3246	 78.622698	
4.35786	 72.001409	
4.39113	 71.716347	
4.4244	 71.376395	
4.45766	 71.111350	
4.49093	 70.754710	
4.52419	 70.360082	
4.55746	 69.976007	
4.59073	 69.810481	
4.62399	 69.608138	
4.65726	 69.364786	
4.69052	 68.827992	
4.72379	 68.561114	
4.75706	 68.289261	
4.79032	 68.269641	
4.82359	 58.443328	
4.85685	 58.388821	
4.89012	 58.228953	
4.92339	 58.077745	
4.95665	 57.970438	
4.98992	 57.926792	
5.02319	 57.924231	
5.05645	 57.890386	
5.08972	 57.851437	
5.12298	 57.884090	
5.15625	 57.775882	
5.18952	 57.805971	
5.22278	 57.780110	
5.25605	 57.767409	
5.28931	 57.726685	
5.32258	 57.730090	
5.35585	 57.700729	
5.38911	 57.710587	
5.42238	 57.682461	
5.45565	 57.665238	
5.48891	 57.655035	
5.52218	 57.658424	
5.55544	 57.615770	
5.58871	 57.659350	
5.62198	 57.671069	
5.65524	 57.680497	
5.68851	 57.642569	
5.72177	 57.629834	
5.75504	 57.673852	
5.78831	 57.670289	
5.82157	 57.628632	
5.85484	 57.577793	
5.8881	 57.571618	
5.92137	 57.555841	
5.95464	 57.614373	
5.9879	 57.585115	
6.02117	 57.546870	
6.05444	 57.549445	
6.0877	 57.626674	
6.12097	 57.612607	
6.15423	 57.692997	
6.1875	 57.752194	
6.22077	 57.806872	
6.25403	 57.770285	
6.2873	 57.734910	
6.32056	 57.778083	
6.35383	 57.777253	
6.3871	 57.774248	
6.42036	 57.778614	
6.45363	 57.804859	
6.4869	 57.808816	
6.52016	 57.738790	
6.55343	 57.867997	
6.58669	 57.835516	
6.61996	 57.860007	
6.65323	 57.859724	
6.68649	 57.851145	
6.71976	 57.840717	
6.75302	 57.833288	
6.78629	 57.856832	
6.81956	 57.871506	
6.85282	 57.832709	
6.88609	 57.838206	
6.91935	 57.906523	
6.95262	 57.885759	
6.98589	 57.902528	
7.01915	 57.890162	
7.05242	 57.911589	
7.08569	 57.929498	
7.11895	 57.932576	
7.15222	 57.914275	
7.18548	 57.925659	
7.21875	 57.957110	
7.25202	 57.992648	
7.28528	 58.060989	
7.31855	 58.050962	
7.35181	 58.050009	
7.38508	 58.028742	
7.41835	 58.080342	
7.45161	 58.084624	
7.48488	 58.074126	
7.51815	 57.997190	
7.55141	 58.059337	
7.58468	 58.066861	
7.61794	 58.052463	
7.65121	 58.082957	
7.68448	 58.051535	
7.71774	 58.120927	
7.75101	 58.080922	
7.78427	 58.085242	
7.81754	 58.122812	
7.85081	 58.061946	
7.88407	 58.122244	
7.91734	 58.098363	
7.9506	 58.118643	
7.98387	 58.088163	
8.01714	 58.145254	
8.0504	 58.116932	
8.08367	 58.200309	
8.11694	 58.144197	
8.1502	 58.146399	
8.18347	 58.190451	
8.21673	 58.138428	
8.25	 58.169424	
8.28327	 58.182089	
8.31653	 58.178203	
8.3498	 58.212006	
8.38306	 58.197132	
8.41633	 58.216815	
8.4496	 58.238626	
8.48286	 58.254119	
8.51613	 58.309146	
8.5494	 58.253163	
8.58266	 58.263870	
8.61593	 58.240015	
8.64919	 58.264543	
8.68246	 58.287892	
8.71573	 58.261715	
8.74899	 58.351036	
8.78226	 58.325437	
8.81552	 58.322462	
8.84879	 58.506692	
8.88206	 58.499094	
8.91532	 58.542896	
8.94859	 58.696651	
8.98185	 58.717040	
9.01512	 58.744467	
9.04839	 58.785663	
9.08165	 58.991035	
9.11492	 59.191639	
9.14819	 59.118160	
9.18145	 58.846335	
9.21472	 58.594606	
9.24798	 83.599953	
9.28125	 84.772317	
9.31452	 85.560029	
9.34778	 85.143641	
9.38105	 84.821205	
9.41431	 84.678430	
9.44758	 84.769905	
9.48085	 84.546811	
9.51411	 84.448520	
9.54738	 84.209901	
9.58065	 84.335511	
9.61391	 84.424275	
9.64718	 84.533187	
9.68044	 84.682341	
9.71371	 84.795851	
9.74698	 84.761004	
